<svg width="69" height="47" xmlns="http://www.w3.org/2000/svg"><g fill="none" fill-rule="evenodd"><rect fill="#FC8906" width="69" height="47" rx="3"/><path d="M25.66 8.886C25.057 8.4 25.194 8 25.964 8H43.038c.769 0 .906.4.3.886L35.774 15c-.343.278-.816.4-1.274.377-.46.023-.932-.1-1.275-.377L25.66 8.886zM43.885 10.5c.614-.474 1.116-.22 1.116.566v10.507c0 .785-.63 1.428-1.4 1.428H25.4c-.77 0-1.4-.643-1.4-1.428V11.065c0-.786.502-1.04 1.116-.566l8.267 6.404c.31.236.714.352 1.118.347.403.005.808-.11 1.117-.347l8.266-6.404z" fill="#FFF" fill-rule="nonzero"/><text font-family="HiraKakuPro-W6, Hiragino Kaku Gothic Pro" font-size="12" font-weight="500" fill="#FFF"><tspan x="8" y="38">無料相談!</tspan></text></g></svg>