<svg width="58" height="31" xmlns="http://www.w3.org/2000/svg"><g fill="#333"><path d="M2.59 26.694v3.423H1.223V23.09l1.367.016v2.186c.857.247 2.137.72 3.846 1.42l.3.122-.572 1.314-.295-.131c-1.403-.624-2.498-1.065-3.28-1.323zm2.51-3.647l1.122 1.45-.958.677-1.01-1.382.845-.745zm1.312-.524l1.085 1.431-.946.681-.97-1.361.831-.751zm7.375 2.39l.932 2.309-1.244.417-.89-2.241 1.202-.484zm1.754-.318l.884 2.294-1.251.37-.838-2.195 1.205-.47zm3.056.517l-.068.32c-.318 1.507-.676 2.526-1.094 3.08-.472.619-1.441 1.226-2.914 1.843l-.332.14-.35-1.224.262-.108c1.204-.495 1.973-.98 2.3-1.431.297-.408.584-1.262.84-2.541l.062-.304 1.294.225zm8.883 5.005h-1.367V23.09l1.367.016v2.186c.858.247 2.138.72 3.846 1.42l.3.122-.572 1.314-.294-.131c-1.404-.624-2.498-1.065-3.28-1.323v3.423zm9.786-6.57h6.127v6.208h-6.284l.016-1.332h4.798c.143 0 .087.055.087-.07V24.94c0-.12.061-.062-.087-.062H37.25l.016-1.332zm17.45 4.566a49.635 49.635 0 0 0-1.134-2.028l-.17-.292 1.189-.583 2.234 4.238-1.26.71-.133-.342a22.872 22.872 0 0 0-.195-.481c-1.556.272-3.644.48-5.557.552h-.331l-.092-1.351.327-.014c.137-.005.24-.008.311-.008h.098c.533-1.127 1.173-2.861 1.919-5.2l.091-.286 1.352.35-.108.322c-.715 2.119-1.305 3.703-1.774 4.757 1.062-.06 2.272-.19 3.232-.344zM12.137 11.84L20.996.493h4.039l-5.897 19.07h-4.627l2.102-6.796-2.26 2.898a337.79 337.79 0 0 0-1.365 1.76c-.47.612-.92 1.192-1.352 1.74l-.312.398H8.709L7.521 12.18l-2.283 7.383H.562L6.46.493h3.784l1.895 11.347zm16.577 3.32h6.786l-1.361 4.403H22.678L28.575.493H39.66l-1.362 4.403H31.89l-.886 2.865h5.958l-1.358 4.391h-5.958l-.93 3.008zm16.629 4.676c-2.816 0-4.894-.967-6.096-2.93-.57-.968-.886-2.049-.946-3.227-.058-1.145.13-2.403.554-3.776a14.65 14.65 0 0 1 4.595-6.956A12.811 12.811 0 0 1 47.035.94c1.3-.472 2.651-.71 4.048-.71 1.331 0 2.496.228 3.49.692a5.302 5.302 0 0 1 2.4 2.204c1.167 1.864 1.292 4.2.437 6.967-.91 2.94-2.452 5.304-4.626 7.07-2.214 1.775-4.706 2.672-7.44 2.672zm6.34-7.681c.47-.735.849-1.568 1.137-2.501.285-.92.424-1.72.423-2.394 0-.605-.126-1.092-.362-1.475a2.211 2.211 0 0 0-.96-.847c-.436-.205-1.024-.315-1.765-.315-.687 0-1.36.13-2.024.394a8.096 8.096 0 0 0-1.963 1.126 8.076 8.076 0 0 0-1.646 1.83 9.386 9.386 0 0 0-1.115 2.406c-.27.87-.392 1.641-.374 2.308.016.61.144 1.122.377 1.548.247.365.571.65.987.863.428.22.972.335 1.642.335.763 0 1.477-.125 2.147-.373a6.957 6.957 0 0 0 1.915-1.085l.119-.094a8.062 8.062 0 0 0 1.463-1.726z"/></g></svg>