<svg width="91" height="49" xmlns="http://www.w3.org/2000/svg"><g fill="#FFF"><path d="M4.063 42.194v5.41H1.919V36.497l2.144.025v3.455c1.346.392 3.354 1.14 6.035 2.245l.47.194-.897 2.075-.462-.207c-2.202-.985-3.92-1.682-5.146-2.09zM8 36.428l1.761 2.294L8.26 39.79l-1.583-2.185L8 36.428zm2.06-.827l1.702 2.262-1.484 1.077-1.523-2.152 1.306-1.187zm11.571 3.78l1.463 3.647-1.953.659-1.396-3.542 1.886-.765zm2.753-.505l1.387 3.626-1.964.586-1.315-3.471 1.892-.741zm4.793.818l-.106.506c-.499 2.38-1.06 3.992-1.715 4.866-.742.98-2.262 1.939-4.572 2.915l-.522.22-.549-1.935.412-.17c1.888-.782 3.094-1.549 3.608-2.262.466-.645.916-1.994 1.319-4.017l.095-.479 2.03.356zm13.938 7.91h-2.144V36.497l2.144.025v3.455c1.346.392 3.354 1.14 6.035 2.245l.47.194-.897 2.075-.462-.207c-2.202-.985-3.92-1.682-5.146-2.09v5.41zm15.354-10.386h9.613v9.814h-9.859l.025-2.105h7.527c.225 0 .137.087.137-.111v-5.395c0-.19.096-.098-.137-.098h-7.33l.024-2.105zm27.377 7.22a78.626 78.626 0 0 0-1.778-3.207l-.267-.462 1.866-.92 3.505 6.697-1.976 1.123-.21-.54a36.308 36.308 0 0 0-.305-.761c-2.442.43-5.718.758-8.719.872h-.52l-.143-2.135.512-.022c.215-.008.377-.013.489-.013h.153c.836-1.78 1.841-4.522 3.01-8.218l.144-.453 2.121.555-.17.507c-1.121 3.349-2.048 5.853-2.783 7.519 1.666-.095 3.564-.3 5.071-.543zM19.044 18.714L32.942.78h6.337l-9.252 30.143h-7.26l3.298-10.743-3.546 4.581c-.694.897-1.408 1.825-2.14 2.784-.739.966-1.446 1.883-2.122 2.75l-.49.628h-4.103L11.8 19.252l-3.582 11.67H.882L10.134.78h5.937l2.973 17.936zm26.01 5.248H55.7l-2.136 6.96H35.582L44.833.778h17.39l-2.136 6.96H50.033l-1.39 4.529h9.347l-2.13 6.94h-9.347l-1.46 4.755zm26.088 7.39c-4.418 0-7.677-1.528-9.563-4.631-.896-1.53-1.39-3.238-1.484-5.101-.091-1.81.203-3.798.87-5.969.685-2.236 1.645-4.28 2.878-6.125a23.277 23.277 0 0 1 4.33-4.87 20.06 20.06 0 0 1 5.623-3.17 18.336 18.336 0 0 1 6.351-1.12c2.089 0 3.917.358 5.475 1.093 1.631.77 2.91 1.961 3.767 3.483 1.83 2.947 2.027 6.64.685 11.012-1.427 4.648-3.846 8.384-7.258 11.175-3.473 2.806-7.383 4.224-11.674 4.224zm9.95-12.14c.735-1.162 1.33-2.478 1.783-3.954.446-1.454.664-2.717.663-3.784 0-.955-.197-1.726-.568-2.331a3.477 3.477 0 0 0-1.506-1.338c-.685-.325-1.606-.499-2.769-.499a8.474 8.474 0 0 0-3.176.624 12.68 12.68 0 0 0-3.08 1.778 12.733 12.733 0 0 0-2.582 2.893c-.73 1.118-1.314 2.384-1.75 3.803-.423 1.377-.615 2.594-.587 3.648.025.965.226 1.774.592 2.448a4.06 4.06 0 0 0 1.549 1.364c.67.347 1.524.53 2.576.53a9.536 9.536 0 0 0 3.369-.591 10.895 10.895 0 0 0 3.004-1.714l.187-.149a12.72 12.72 0 0 0 2.294-2.729z"/></g></svg>